<svg xmlns="http://www.w3.org/2000/svg" xmlns:xlink="http://www.w3.org/1999/xlink" version="1.1" x="0px" y="0px" viewBox="0 0 60 75" style="enable-background:new 0 0 60 60;" xml:space="preserve"><path d="M15.57,40.57C15.57,48.53,22.05,55,30,55c7.96,0,14.43-6.47,14.43-14.43c0-7.62-5.94-13.86-13.43-14.38V16.18  c1.46,0.67,2.76,0.91,3.88,0.91c1.52,0,2.69-0.45,3.45-0.85c2.06-1.09,3.53-3.2,3.59-5.13c0.07-2.37,1.69-4.47,1.7-4.49  c0.24-0.3,0.28-0.71,0.12-1.06C43.57,5.22,43.22,5,42.84,5c-12.22,0-13.81,9.25-13.82,9.34c-0.01,0.03,0,0.06,0,0.09  c0,0.02-0.01,0.04-0.01,0.07v0.33c-1.54-1.78-4.22-3.5-8.86-3.5c-0.38,0-0.73,0.22-0.9,0.57c-0.17,0.34-0.12,0.75,0.11,1.05  c0.01,0.02,1.21,1.58,1.26,3.32c0.05,1.56,1.23,3.26,2.89,4.14c0.6,0.32,1.54,0.68,2.76,0.68c0.8,0,1.72-0.16,2.74-0.58v5.68  C21.52,26.71,15.57,32.95,15.57,40.57z M34.96,37.13c0,0.55-0.45,1-1,1s-1-0.45-1-1c0-1.35-1.32-2.45-2.95-2.45s-2.95,1.1-2.95,2.45  c0,1.11,1.08,1.94,3.2,2.48c3.89,0.98,4.71,2.94,4.71,4.41c0,2.14-1.7,3.94-3.95,4.35v1.15c0,0.55-0.45,1-1,1s-1-0.45-1-1v-1.15  c-2.25-0.42-3.95-2.21-3.95-4.35c0-0.55,0.45-1,1-1s1,0.45,1,1c0,1.35,1.32,2.45,2.95,2.45s2.95-1.1,2.95-2.45  c0-1.11-1.08-1.94-3.2-2.47c-3.89-0.98-4.71-2.94-4.71-4.42c0-2.14,1.7-3.94,3.95-4.35v-1.15c0-0.55,0.45-1,1-1s1,0.45,1,1v1.15  C33.26,33.19,34.96,34.98,34.96,37.13z" fill="#67BA72"/><text x="0" y="80" fill="#000000" font-size="5px" font-weight="bold" font-family="'Helvetica Neue', Helvetica, Arial-Unicode, Arial, Sans-serif">from the Noun Project</text></svg>